<svg xmlns="http://www.w3.org/2000/svg" viewBox="0 0 449.15 444"><defs><style>.cls-1{fill:#808099;}.cls-2{fill:#e7bfe8;}.cls-3,.cls-9{fill:none;stroke-miterlimit:10;}.cls-3{stroke:#232323;stroke-width:3px;}.cls-4{fill:#232323;}.cls-5{fill:#ffef7b;}.cls-6{fill:#242433;}.cls-7{fill:#fff;}.cls-8{fill:#5d5d6d;}.cls-9{stroke:#808099;stroke-linecap:round;stroke-width:32px;}</style></defs><title>cat</title><g id="head"><rect class="cls-1" y="32" width="288" height="184" rx="92" ry="92"/><path class="cls-1" d="M360,252c-5.76-13.71-31.47-23.73-42.75-28.12A140,140,0,0,0,288,216V340C340,309,368.24,271.61,360,252Z" transform="translate(-288 -216)"/><path class="cls-1" d="M504,254c5.76-13.71,31.47-23.73,42.75-28.12A140,140,0,0,1,576,218V342C524.05,311,495.76,273.61,504,254Z" transform="translate(-288 -216)"/><g id="inner-ear"><path class="cls-2" d="M576,218s-45,18-45,45l45,45Z" transform="translate(-288 -216)"/><path class="cls-2" d="M288,216s45,18,45,45l-45,45Z" transform="translate(-288 -216)"/></g><path class="cls-1" d="M441,396" transform="translate(-288 -216)"/></g><g id="mouth"><line class="cls-3" x1="145.24" y1="178.31" x2="158.24" y2="189.31"/><line class="cls-3" x1="147.24" y1="178.31" x2="134.24" y2="189.31"/><path class="cls-4" d="M435.83,394.78,446,388a3.29,3.29,0,0,0-1.82-6H423.87a3.29,3.29,0,0,0-1.82,6l10.12,6.75A3.29,3.29,0,0,0,435.83,394.78Z" transform="translate(-288 -216)"/></g><g id="eyes"><g id="iris"><ellipse class="cls-5" cx="88.5" cy="123.5" rx="34.5" ry="31.5"/><ellipse class="cls-5" cx="205.5" cy="123.5" rx="34.5" ry="31.5"/></g><g id="pupils"><ellipse class="cls-6" cx="205.92" cy="123.55" rx="18.75" ry="24.85"/><ellipse class="cls-6" cx="88.92" cy="123.55" rx="18.75" ry="24.85"/></g></g><g id="Layer_5" data-name="Layer 5"><ellipse class="cls-7" cx="73.5" cy="108.5" rx="10.5" ry="7.5"/><ellipse class="cls-7" cx="191.5" cy="108.5" rx="10.5" ry="7.5"/></g><g id="body"><rect class="cls-1" x="177.62" y="217" width="52.38" height="227" rx="20" ry="20"/><rect class="cls-1" x="73.62" y="217" width="52.38" height="227" rx="20" ry="20"/><polygon class="cls-1" points="74 323 230 323 230 209.45 230 201 214.59 201 74 201 74 323"/><path id="body-bg" class="cls-8" d="M152,292h0a26,26,0,0,1,26,26V426a0,0,0,0,1,0,0H126a0,0,0,0,1,0,0V318A26,26,0,0,1,152,292Z"/><path class="cls-1" d="M646,563.5a85.48,85.48,0,1,1-37.7-70.9A85.5,85.5,0,0,1,646,563.5Z" transform="translate(-288 -216)"/><path class="cls-1" d="M564,432" transform="translate(-288 -216)"/><path class="cls-1" d="M518,425s44.23,49.87,67.94,56.85C634,496,518,515.67,518,515.67Z" transform="translate(-288 -216)"/></g><g id="tail"><path class="cls-9" d="M558,632.69c0-.05,240.78,19.59,137.33-245.69" transform="translate(-288 -216)"/></g></svg>